<?xml version="1.0" encoding="UTF-8"?>
<svg width="640px" height="640px" viewBox="0 0 640 640" version="1.1" xmlns="http://www.w3.org/2000/svg" xmlns:xlink="http://www.w3.org/1999/xlink">
    <!-- Generator: Sketch 62 (91390) - https://sketch.com -->
    <title>Group 4</title>
    <desc>Created with Sketch.</desc>
    <g id="Page-1" stroke="none" stroke-width="1" fill="none" fill-rule="evenodd">
        <g id="Group-4">
            <g id="Group-3">
                <circle id="Oval" fill="#FFFFFF" cx="320" cy="320" r="320"></circle>
                <g id="Combined-Shape" transform="translate(3.000000, 57.000000)" fill="#013D4F" fill-rule="nonzero">
                    <path d="M316.5,0 C358.596338,0 395.19467,23.5397665 413.849909,58.1742142 C464.626907,74.6830006 501.336,122.475145 501.336,178.858713 L501.336,178.858713 L501.334665,178.962529 C503.015304,178.896226 504.703189,178.858713 506.4,178.858713 C576.319251,178.858713 633,235.655267 633,305.717402 C633,343.778856 616.271368,377.924167 589.780441,401.17618 C582.580017,407.496247 573.344522,411 563.772326,411 L563.772326,411 L69.2276741,411 C59.6554778,411 50.4199583,407.496247 43.2195091,401.176131 C16.7286322,377.924143 0,343.778856 0,305.717402 C0,237.355124 53.9663161,181.632657 121.537385,178.968501 C121.53736,178.931806 121.536,178.895408 121.536,178.858713 C121.536,118.141143 164.105378,67.386543 220.968988,54.927792 C240.12035,22.0777197 275.731911,0 316.5,0 Z"></path>
                </g>
                <path d="M293.640867,301.204545 C277.727554,276.545455 273.776074,267 242.242331,267 C210.708589,267 191,294.840909 191,319.5 C191,344.159091 213.608131,372 249.083591,372 C284.559051,372 355.25858,267 393.099071,267 C430.939562,267 448,292.223609 448,319.5 C448,346.776391 420.720384,372 396.281734,372 C371.843083,372 355.702786,353.704545 346.950464,336.204545" id="Line" stroke="#FFFFFF" stroke-width="24" stroke-linecap="round"></path>
                <circle id="Oval" stroke="#FFFFFF" stroke-width="8" cx="316.5" cy="138.5" r="13.5"></circle>
                <circle id="Oval" stroke="#FFFFFF" stroke-width="8" cx="319.5" cy="428.5" r="13.5"></circle>
                <path id="Line-2" d="M473.25,273 C479.196058,273 484.132036,277.324668 485.084115,283.000187 L500.75,283 L500.75,287 L485.083947,287.000809 C484.131458,292.675838 479.19571,297 473.25,297 C466.622583,297 461.25,291.627417 461.25,285 C461.25,278.372583 466.622583,273 473.25,273 Z" fill="#FFFFFF" fill-rule="nonzero"></path>
                <g id="Group" transform="translate(487.000000, 313.000000)">
                    <circle id="Oval" stroke="#FFFFFF" stroke-width="8" cx="70" cy="17.5" r="13.5"></circle>
                    <path id="Line-2" d="M0.5,5 C6.44605798,5 11.3820355,9.32466846 12.3341145,15.0001873 L54.5,15 L54.5,19 L12.3339473,19.0008092 C11.3814578,24.6758377 6.44570999,29 0.5,29 C-6.127417,29 -11.5,23.627417 -11.5,17 C-11.5,10.372583 -6.127417,5 0.5,5 Z" fill="#FFFFFF" fill-rule="nonzero"></path>
                    <path id="Line-2" d="M0.5,5 C6.44605798,5 11.3820355,9.32466846 12.3341145,15.0001873 L54.5,15 L54.5,19 L12.3339473,19.0008092 C11.3814578,24.6758377 6.44570999,29 0.5,29 C-6.127417,29 -11.5,23.627417 -11.5,17 C-11.5,10.372583 -6.127417,5 0.5,5 Z" fill="#FFFFFF" fill-rule="nonzero"></path>
                </g>
                <g id="Group-2" transform="translate(65.000000, 284.000000)">
                    <circle id="Oval" stroke="#FFFFFF" stroke-width="8" cx="17.5" cy="46.5" r="13.5"></circle>
                    <path id="Line-2" d="M87,34 C93.627417,34 99,39.372583 99,46 C99,52.627417 93.627417,58 87,58 C81.05429,58 76.1185422,53.6758377 75.1660527,48.0008092 L33,48 L33,44 L75.1658855,44.0001873 C76.1179645,38.3246685 81.053942,34 87,34 Z" fill="#FFFFFF" fill-rule="nonzero"></path>
                    <path id="Line-2" d="M87,-11 C93.627417,-11 99,-5.627417 99,1 C99,7.627417 93.627417,13 87,13 C81.05429,13 76.1185422,8.67583772 75.1660527,3.00080917 L59,3 L59,-1 L75.1660527,-1.00080917 C76.1185422,-6.67583772 81.05429,-11 87,-11 Z" fill="#FFFFFF" fill-rule="nonzero"></path>
                </g>
                <circle id="Oval" stroke="#FFFFFF" stroke-width="8" cx="441.5" cy="211.5" r="13.5"></circle>
                <circle id="Oval" stroke="#FFFFFF" stroke-width="8" cx="515.5" cy="284.5" r="13.5"></circle>
                <circle id="Oval" stroke="#FFFFFF" stroke-width="8" cx="109.5" cy="284.5" r="13.5"></circle>
                <circle id="Oval" stroke="#FFFFFF" stroke-width="8" cx="109.5" cy="418.5" r="13.5"></circle>
                <circle id="Oval" stroke="#FFFFFF" stroke-width="8" cx="533.5" cy="418.5" r="13.5"></circle>
                <circle id="Oval" stroke="#FFFFFF" stroke-width="8" cx="193.5" cy="213.5" r="13.5"></circle>
                <circle id="Oval" stroke="#FFFFFF" stroke-width="8" cx="240.5" cy="156.5" r="13.5"></circle>
                <circle id="Oval" stroke="#FFFFFF" stroke-width="8" cx="394.5" cy="156.5" r="13.5"></circle>
                <line x1="320" y1="359" x2="320" y2="411" id="Line-3" stroke="#FFFFFF" stroke-width="4" stroke-linecap="square"></line>
                <path id="Line-3" d="M319,154 L319.000809,240.166053 C324.675838,241.118542 329,246.05429 329,252 C329,258.627417 323.627417,264 317,264 C310.372583,264 305,258.627417 305,252 C305,246.053942 309.324668,241.117964 315.000187,240.165885 L315,154 L319,154 Z" fill="#FFFFFF" fill-rule="nonzero"></path>
                <path id="Line-3" d="M242.907122,169.911248 L242.997937,171.909185 L243.97,193.317 L261.749483,218.207521 C266.92112,215.683845 273.308861,217.186825 276.764802,222.025142 C280.61691,227.418093 279.367809,234.912694 273.974858,238.764802 C268.581907,242.61691 261.087306,241.367809 257.235198,235.974858 C253.779315,231.136622 254.429199,224.606849 258.493565,220.533235 L240.372533,195.162476 L240.028908,194.681401 L240.002063,194.090815 L239.002063,172.090815 L238.911248,170.092878 L242.907122,169.911248 Z" fill="#FFFFFF" fill-rule="nonzero"></path>
                <path id="Line-3" d="M397,170 L397,192.612338 L396.657178,193.119715 L378.282627,220.314172 C382.452108,224.280552 383.271962,230.791525 379.943068,235.718289 C376.232659,241.209694 368.773116,242.653476 363.281711,238.943068 C357.790306,235.232659 356.346524,227.773116 360.056932,222.281711 C363.385774,217.355025 369.732301,215.686277 374.967908,218.074552 L393,191.386 L393,170 L397,170 Z" fill="#FFFFFF" fill-rule="nonzero"></path>
                <circle id="Oval" fill="#FFFFFF" cx="320" cy="360" r="12"></circle>
            </g>
            <path id="Line-4" d="M176,373 C182.627417,373 188,378.372583 188,385 C188,391.627417 182.627417,397 176,397 C170.05429,397 165.118542,392.675838 164.166053,387.000809 L118.307,387 L111.832315,401.801638 L111.030677,403.633952 L107.366048,402.030677 L108.167685,400.198362 L115.167685,384.198362 L115.691969,383 L164.165885,383.000187 C165.117964,377.324668 170.053942,373 176,373 Z" fill="#FFFFFF" fill-rule="nonzero"></path>
            <path id="Line-5" d="M473.626309,373.500665 C479.571689,373.563248 484.461649,377.939123 485.354352,383.623863 L521.021051,384.000111 L521.969324,384.010093 L534.561738,399.75061 L535.811128,401.312348 L532.687652,403.811128 L531.438262,402.24939 L520.03,387.989 L485.312288,387.624946 C484.300245,393.28979 479.319181,397.561919 473.373691,397.499335 C466.746641,397.429577 461.430906,392.000741 461.500665,385.373691 C461.570423,378.746641 466.999259,373.430906 473.626309,373.500665 Z" fill="#FFFFFF" fill-rule="nonzero"></path>
        </g>
    </g>
</svg>